# xmcd
#
# Track frame offsets: 
#        150
#        14912
#        32855
#        46491
#        65385
#        86633
#        107653
#
# Disc length: 1685 seconds
#
# Revision: 0
# Processed by: cddbd v1.5.2PL0 Copyright (c) Steve Scherf et al.
# Submitted via: ExactAudioCopy v0.99pb3
#
DISCID=5c069307
DTITLE=Various Artist - 679 2004-2
DYEAR=2004
DGENRE=679
TTITLE0=Death From Above 1979 - Romantic Rights
TTITLE1=Annie - Chewing Gum
TTITLE2=The Futureheads - Hounds Of Love
TTITLE3=Kano - P's And Q's
TTITLE4=Secret Machines - Sad And Lonely
TTITLE5=Plan B - Dead And Buried
TTITLE6=M Craft - Emily Snow
EXTD=
EXTT0=
EXTT1=
EXTT2=
EXTT3=
EXTT4=
EXTT5=
EXTT6=
PLAYORDER=
